<svg xmlns="http://www.w3.org/2000/svg" viewBox="0 0 38.05 38.05"><defs><style>.cls-1{fill:#d00;}.cls-2{fill:#fff;}</style></defs><title>Asset 6</title><g id="Layer_2" data-name="Layer 2"><g id="Layer_1-2" data-name="Layer 1"><rect class="cls-1" width="38.05" height="38.05" rx="2" ry="2"/><path class="cls-2" d="M14,9a5,5,0,0,0-5,5V24a5,5,0,0,0,5,5H24a5,5,0,0,0,5-5V14a5,5,0,0,0-5-5Zm0,1.12H24A3.86,3.86,0,0,1,27.91,14V24A3.86,3.86,0,0,1,24,27.91H14A3.86,3.86,0,0,1,10.14,24V14A3.86,3.86,0,0,1,14,10.14ZM24.58,11.8a1.11,1.11,0,1,0,1.11,1.11A1.11,1.11,0,0,0,24.58,11.8ZM19,14.3A4.73,4.73,0,1,0,23.75,19,4.73,4.73,0,0,0,19,14.3Zm0,1.11A3.62,3.62,0,1,1,15.41,19,3.6,3.6,0,0,1,19,15.41Z"/></g></g></svg>