<svg xmlns="http://www.w3.org/2000/svg" xmlns:xlink="http://www.w3.org/1999/xlink" viewBox="0 0 780.84 567.37"><defs><style>.cls-1{fill:none;}.cls-2{isolation:isolate;}.cls-3{clip-path:url(#clip-path);}.cls-4,.cls-46{fill:#fff;}.cls-10,.cls-11,.cls-12,.cls-13,.cls-14,.cls-15,.cls-16,.cls-17,.cls-18,.cls-19,.cls-20,.cls-21,.cls-5,.cls-6,.cls-7,.cls-8,.cls-9{opacity:0.9;}.cls-10,.cls-11,.cls-12,.cls-13,.cls-14,.cls-15,.cls-16,.cls-17,.cls-18,.cls-19,.cls-20,.cls-21,.cls-23,.cls-5,.cls-6,.cls-7,.cls-8,.cls-9{mix-blend-mode:multiply;}.cls-5{fill:url(#linear-gradient);}.cls-6{fill:url(#linear-gradient-2);}.cls-7{fill:url(#linear-gradient-3);}.cls-8{fill:url(#linear-gradient-4);}.cls-9{fill:url(#linear-gradient-5);}.cls-10{fill:url(#linear-gradient-6);}.cls-11{fill:url(#linear-gradient-7);}.cls-12{fill:url(#linear-gradient-8);}.cls-13{fill:url(#linear-gradient-9);}.cls-14{fill:url(#linear-gradient-10);}.cls-15{fill:url(#linear-gradient-11);}.cls-16{fill:url(#linear-gradient-12);}.cls-17{fill:url(#linear-gradient-13);}.cls-18{fill:url(#linear-gradient-14);}.cls-19{fill:url(#linear-gradient-15);}.cls-20{fill:url(#linear-gradient-16);}.cls-21{fill:url(#linear-gradient-17);}.cls-22{mix-blend-mode:color-dodge;fill:url(#radial-gradient);}.cls-23{opacity:0.6;fill:url(#radial-gradient-2);}.cls-24{fill:#ff2b70;}.cls-25{fill:#f6f6f6;}.cls-26{fill:url(#linear-gradient-18);}.cls-27{fill:#ff976e;}.cls-28{fill:#9141eb;}.cls-29{mix-blend-mode:overlay;}.cls-30{fill:#231f20;}.cls-31{fill:url(#linear-gradient-19);}.cls-32{fill:url(#linear-gradient-20);}.cls-33{fill:url(#linear-gradient-21);}.cls-34{fill:url(#linear-gradient-22);}.cls-35{fill:url(#linear-gradient-23);}.cls-36{fill:url(#linear-gradient-24);}.cls-37{fill:url(#linear-gradient-25);}.cls-38{fill:url(#linear-gradient-26);}.cls-39{fill:url(#linear-gradient-27);}.cls-40{fill:url(#linear-gradient-28);}.cls-41{fill:url(#linear-gradient-29);}.cls-42{fill:url(#linear-gradient-30);}.cls-43{fill:url(#linear-gradient-31);}.cls-44{fill:url(#linear-gradient-32);}.cls-45{fill:url(#linear-gradient-33);}.cls-46{font-size:18.93px;font-family:Montserrat-SemiBold, Montserrat;font-weight:600;}.cls-47{letter-spacing:0em;}.cls-48{letter-spacing:-0.02em;}.cls-49{letter-spacing:0em;}</style><clipPath id="clip-path"><rect class="cls-1" x="35.36" y="30.99" width="681.54" height="391.89"/></clipPath><linearGradient id="linear-gradient" x1="-473.04" y1="-3483.94" x2="-953.02" y2="-2533.4" gradientTransform="matrix(0.75, -0.72, -0.83, -0.86, -1107.61, -3010.89)" gradientUnits="userSpaceOnUse"><stop offset="0" stop-color="#ff159e"/><stop offset="1" stop-color="#ff9670"/></linearGradient><linearGradient id="linear-gradient-2" x1="-733.71" y1="-2520.84" x2="-1001.25" y2="-3145.7" gradientTransform="matrix(0.75, -0.72, -0.83, -0.86, -1107.61, -3010.89)" gradientUnits="userSpaceOnUse"><stop offset="0" stop-color="#ffaf69"/><stop offset="1" stop-color="#d829df"/></linearGradient><linearGradient id="linear-gradient-3" x1="-1006.83" y1="-2403.91" x2="-1274.37" y2="-3028.77" xlink:href="#linear-gradient-2"/><linearGradient id="linear-gradient-4" x1="-944.52" y1="-2962.24" x2="-1915.72" y2="-2546.42" gradientTransform="matrix(0.75, -0.72, -0.83, -0.86, -1107.61, -3010.89)" gradientUnits="userSpaceOnUse"><stop offset="0" stop-color="#d52ee1"/><stop offset="1" stop-color="#33bdff"/></linearGradient><linearGradient id="linear-gradient-5" x1="-1943.24" y1="-2187.17" x2="-972.08" y2="-2602.98" gradientTransform="matrix(0.75, -0.72, -0.83, -0.86, -1107.61, -3010.89)" gradientUnits="userSpaceOnUse"><stop offset="0" stop-color="#c5eea7"/><stop offset="1" stop-color="#ffad69"/></linearGradient><linearGradient id="linear-gradient-6" x1="-1387.72" y1="-2748.88" x2="-1145.15" y2="-2359.5" gradientTransform="matrix(0.75, -0.72, -0.83, -0.86, -1107.61, -3010.89)" gradientUnits="userSpaceOnUse"><stop offset="0" stop-color="#9a5fff"/><stop offset="1" stop-color="#ffd469"/></linearGradient><linearGradient id="linear-gradient-7" x1="-1319.39" y1="-2804.17" x2="-1683.97" y2="-2107.54" gradientTransform="matrix(0.75, -0.72, -0.83, -0.86, -1107.61, -3010.89)" gradientUnits="userSpaceOnUse"><stop offset="0" stop-color="#9c59ff"/><stop offset="1" stop-color="#76d6d4"/></linearGradient><linearGradient id="linear-gradient-8" x1="-989.04" y1="-2769.69" x2="-1026.04" y2="-2492.21" gradientTransform="matrix(0.75, -0.72, -0.83, -0.86, -1107.61, -3010.89)" gradientUnits="userSpaceOnUse"><stop offset="0" stop-color="#ff4d7f"/><stop offset="1" stop-color="#ffb269"/></linearGradient><linearGradient id="linear-gradient-9" x1="-1294.58" y1="-2806.9" x2="-1052.02" y2="-2417.52" gradientTransform="matrix(0.75, -0.72, -0.83, -0.86, -1107.61, -3010.89)" gradientUnits="userSpaceOnUse"><stop offset="0" stop-color="#9c5aff"/><stop offset="1" stop-color="#ffd569"/></linearGradient><linearGradient id="linear-gradient-10" x1="-1216.06" y1="-2438.79" x2="-1122.65" y2="-2558.15" gradientTransform="matrix(0.75, -0.72, -0.83, -0.86, -1107.61, -3010.89)" gradientUnits="userSpaceOnUse"><stop offset="0" stop-color="#ffd669"/><stop offset="1" stop-color="#ffb369"/></linearGradient><linearGradient id="linear-gradient-11" x1="-947.17" y1="-2661.46" x2="-1307.9" y2="-2799.38" gradientTransform="matrix(0.75, -0.72, -0.83, -0.86, -1107.61, -3010.89)" gradientUnits="userSpaceOnUse"><stop offset="0" stop-color="#ff4d81"/><stop offset="1" stop-color="#9a60ff"/></linearGradient><linearGradient id="linear-gradient-12" x1="-911.67" y1="-2759.38" x2="-948.66" y2="-2481.88" gradientTransform="matrix(0.75, -0.72, -0.83, -0.86, -1107.61, -3010.89)" gradientUnits="userSpaceOnUse"><stop offset="0" stop-color="#ff4d7d"/><stop offset="1" stop-color="#ffb369"/></linearGradient><linearGradient id="linear-gradient-13" x1="-733.72" y1="-2588.92" x2="-912.94" y2="-2755.78" gradientTransform="matrix(0.75, -0.72, -0.83, -0.86, -1107.61, -3010.89)" gradientUnits="userSpaceOnUse"><stop offset="0" stop-color="#ff8b6b"/><stop offset="1" stop-color="#ff4b7f"/></linearGradient><linearGradient id="linear-gradient-14" x1="-1483.54" y1="-2797.14" x2="-1181.28" y2="-2213.35" gradientTransform="matrix(0.75, -0.72, -0.83, -0.86, -1107.61, -3010.89)" gradientUnits="userSpaceOnUse"><stop offset="0" stop-color="#767dff"/><stop offset="1" stop-color="#ffef69"/></linearGradient><linearGradient id="linear-gradient-15" x1="-1434.62" y1="-2835.7" x2="-2118.45" y2="-1356.76" gradientTransform="matrix(0.75, -0.72, -0.83, -0.86, -1107.61, -3010.89)" gradientUnits="userSpaceOnUse"><stop offset="0" stop-color="#767dff"/><stop offset="1" stop-color="#9fe3bb"/></linearGradient><linearGradient id="linear-gradient-16" x1="-1340.56" y1="-2871.16" x2="-1038.3" y2="-2287.38" gradientTransform="matrix(0.75, -0.72, -0.83, -0.86, -1107.61, -3010.89)" gradientUnits="userSpaceOnUse"><stop offset="0" stop-color="#777bff"/><stop offset="1" stop-color="#ffee69"/></linearGradient><linearGradient id="linear-gradient-17" x1="-337.07" y1="-2743.43" x2="-1420.97" y2="-2831.29" gradientTransform="matrix(0.75, -0.72, -0.83, -0.86, -1107.61, -3010.89)" gradientUnits="userSpaceOnUse"><stop offset="0" stop-color="#ff4679"/><stop offset="1" stop-color="#8c7fff"/></linearGradient><radialGradient id="radial-gradient" cx="235.08" cy="-105.98" r="833.13" gradientUnits="userSpaceOnUse"><stop offset="0" stop-color="#ffdf6b"/><stop offset="0.11" stop-color="#ccb356"/><stop offset="0.24" stop-color="#97843f"/><stop offset="0.37" stop-color="#695b2c"/><stop offset="0.5" stop-color="#433a1c"/><stop offset="0.63" stop-color="#262110"/><stop offset="0.76" stop-color="#110f07"/><stop offset="0.88" stop-color="#040402"/><stop offset="1"/></radialGradient><radialGradient id="radial-gradient-2" cx="521.08" cy="198.74" r="286.24" gradientUnits="userSpaceOnUse"><stop offset="0.31" stop-color="#9d3895"/><stop offset="1" stop-color="#fff"/></radialGradient><linearGradient id="linear-gradient-18" x1="628.52" y1="130.4" x2="361.11" y2="481.83" gradientTransform="translate(5.64 -12.28) rotate(1.3)" gradientUnits="userSpaceOnUse"><stop offset="0.4" stop-color="#fff"/><stop offset="1" stop-color="#d1d1d1"/></linearGradient><linearGradient id="linear-gradient-19" x1="127.4" y1="121.53" x2="127.4" y2="165.07" gradientTransform="matrix(1, 0, 0, 1, 0, 0)" xlink:href="#linear-gradient-18"/><linearGradient id="linear-gradient-20" x1="155.28" y1="121.53" x2="155.28" y2="165.07" gradientTransform="matrix(1, 0, 0, 1, 0, 0)" xlink:href="#linear-gradient-18"/><linearGradient id="linear-gradient-21" x1="192.68" y1="121.53" x2="192.68" y2="165.07" gradientTransform="matrix(1, 0, 0, 1, 0, 0)" xlink:href="#linear-gradient-18"/><linearGradient id="linear-gradient-22" x1="240.49" y1="121.53" x2="240.49" y2="165.07" gradientTransform="matrix(1, 0, 0, 1, 0, 0)" xlink:href="#linear-gradient-18"/><linearGradient id="linear-gradient-23" x1="283.1" y1="121.53" x2="283.1" y2="165.07" gradientTransform="matrix(1, 0, 0, 1, 0, 0)" xlink:href="#linear-gradient-18"/><linearGradient id="linear-gradient-24" x1="328.83" y1="121.53" x2="328.83" y2="165.07" gradientTransform="matrix(1, 0, 0, 1, 0, 0)" xlink:href="#linear-gradient-18"/><linearGradient id="linear-gradient-25" x1="142.98" y1="183.33" x2="142.98" y2="241.25" gradientTransform="matrix(1, 0, 0, 1, 0, 0)" xlink:href="#linear-gradient-18"/><linearGradient id="linear-gradient-26" x1="183.41" y1="183.33" x2="183.41" y2="241.25" gradientTransform="matrix(1, 0, 0, 1, 0, 0)" xlink:href="#linear-gradient-18"/><linearGradient id="linear-gradient-27" x1="233.16" y1="183.33" x2="233.16" y2="241.25" gradientTransform="matrix(1, 0, 0, 1, 0, 0)" xlink:href="#linear-gradient-18"/><linearGradient id="linear-gradient-28" x1="299.05" y1="183.33" x2="299.05" y2="241.25" gradientTransform="matrix(1, 0, 0, 1, 0, 0)" xlink:href="#linear-gradient-18"/><linearGradient id="linear-gradient-29" x1="135.55" y1="253.92" x2="135.55" y2="302.5" gradientTransform="matrix(1, 0, 0, 1, 0, 0)" xlink:href="#linear-gradient-18"/><linearGradient id="linear-gradient-30" x1="188.29" y1="254.72" x2="188.29" y2="301.69" gradientTransform="matrix(1, 0, 0, 1, 0, 0)" xlink:href="#linear-gradient-18"/><linearGradient id="linear-gradient-31" x1="232.92" y1="254.72" x2="232.92" y2="301.69" gradientTransform="matrix(1, 0, 0, 1, 0, 0)" xlink:href="#linear-gradient-18"/><linearGradient id="linear-gradient-32" x1="277.66" y1="254.72" x2="277.66" y2="301.69" gradientTransform="matrix(1, 0, 0, 1, 0, 0)" xlink:href="#linear-gradient-18"/><linearGradient id="linear-gradient-33" x1="325.66" y1="254.72" x2="325.66" y2="301.69" gradientTransform="matrix(1, 0, 0, 1, 0, 0)" xlink:href="#linear-gradient-18"/></defs><title>Asset 3</title><g class="cls-2"><g id="Layer_2" data-name="Layer 2"><g id="Layer_1-2" data-name="Layer 1"><g class="cls-3"><rect class="cls-4" x="18.83" width="762.01" height="456.73"/><polygon class="cls-5" points="720.99 20.24 586.68 20.24 720.99 55.07 720.99 20.24"/><polygon class="cls-6" points="720.99 20.24 435.9 20.24 720.99 416.47 720.99 20.24"/><polygon class="cls-7" points="435.9 20.24 42.57 20.24 0 74.17 0 207.99 720.99 433.79 720.99 416.47 435.9 20.24"/><polygon class="cls-8" points="0 207.99 0 443.05 707.47 443.05 720.99 441.12 720.99 433.79 0 207.99"/><polygon class="cls-9" points="0 20.24 0 74.17 42.57 20.24 0 20.24"/><polygon class="cls-10" points="0 255.4 237.51 354.73 89.78 20.24 0 20.24 0 255.4"/><polygon class="cls-11" points="0 255.4 0 295.2 237.51 354.73 0 255.4"/><polygon class="cls-12" points="236.51 20.24 239.29 30.48 504.54 32.08 480.58 20.24 236.51 20.24"/><polygon class="cls-13" points="89.78 20.24 237.51 354.73 239.29 30.48 226.34 20.24 89.78 20.24"/><polygon class="cls-14" points="226.34 20.24 239.29 30.48 236.51 20.24 226.34 20.24"/><polygon class="cls-15" points="504.54 32.08 237.51 354.73 239.29 30.48 504.54 32.08"/><polygon class="cls-16" points="480.58 20.24 504.54 32.08 493.6 20.24 480.58 20.24"/><polygon class="cls-17" points="493.6 20.24 504.54 32.08 504.89 20.24 493.6 20.24"/><polygon class="cls-18" points="0 157.9 0 398.81 122.35 443.05 166.65 443.05 0 157.9"/><polygon class="cls-19" points="0 398.81 0 413.31 106.08 443.05 122.35 443.05 0 398.81"/><polygon class="cls-20" points="0 20.24 0 157.9 166.65 443.05 183.91 443.05 296.07 20.24 0 20.24"/><polygon class="cls-21" points="213.36 443.05 720.99 147.09 720.99 20.24 296.07 20.24 183.91 443.05 213.36 443.05"/><rect class="cls-22" x="17.36" y="17.08" width="705.22" height="414.92"/><polygon class="cls-23" points="446.88 149.57 163.83 432.61 406.73 567.37 629.83 344.27 446.88 149.57"/></g><rect class="cls-24" x="139.53" y="343.93" width="192.15" height="32.17"/><path class="cls-25" d="M183.83,365.36a5.79,5.79,0,0,1-2.3-.45,5.59,5.59,0,0,1-1.83-1.22,5.51,5.51,0,0,1-1.21-1.83,5.64,5.64,0,0,1-.44-2.25v0a5.82,5.82,0,0,1,.43-2.25,5.57,5.57,0,0,1,3.07-3.08,5.85,5.85,0,0,1,2.36-.46,7.72,7.72,0,0,1,1.42.13,6.18,6.18,0,0,1,1.17.36,5.25,5.25,0,0,1,1,.55,8.21,8.21,0,0,1,.86.7L187.07,357a6.26,6.26,0,0,0-1.44-1,3.9,3.9,0,0,0-1.74-.38,3.52,3.52,0,0,0-1.49.31,3.64,3.64,0,0,0-1.19.85,3.58,3.58,0,0,0-.78,1.25,4.13,4.13,0,0,0-.28,1.54v0a4.21,4.21,0,0,0,.28,1.54,3.76,3.76,0,0,0,.78,1.27,3.68,3.68,0,0,0,2.68,1.17,3.82,3.82,0,0,0,1.79-.39,7.29,7.29,0,0,0,1.47-1.07l1.28,1.28a7.66,7.66,0,0,1-.91.82,6.76,6.76,0,0,1-1,.63,5.54,5.54,0,0,1-1.21.4A7.24,7.24,0,0,1,183.83,365.36Z"/><path class="cls-25" d="M195.92,365.36a6.18,6.18,0,0,1-2.4-.45,5.77,5.77,0,0,1-1.86-1.24,5.59,5.59,0,0,1-1.22-1.83,5.76,5.76,0,0,1-.44-2.23v0a5.76,5.76,0,0,1,.44-2.23,5.61,5.61,0,0,1,1.23-1.84,5.78,5.78,0,0,1,1.88-1.25,6.43,6.43,0,0,1,4.8,0,5.65,5.65,0,0,1,3.08,3.07,5.72,5.72,0,0,1,.43,2.23v0a5.61,5.61,0,0,1-1.66,4.06,6,6,0,0,1-1.88,1.26A6.08,6.08,0,0,1,195.92,365.36Zm0-1.8a3.72,3.72,0,0,0,1.54-.32,3.56,3.56,0,0,0,1.2-.84,3.9,3.9,0,0,0,.79-1.26,4.33,4.33,0,0,0,.28-1.53v0a4.34,4.34,0,0,0-.28-1.54,3.86,3.86,0,0,0-.8-1.27,3.77,3.77,0,0,0-2.76-1.17,3.69,3.69,0,0,0-1.54.31,3.73,3.73,0,0,0-1.21.85,3.89,3.89,0,0,0-.78,1.25,4.13,4.13,0,0,0-.28,1.54v0a4.21,4.21,0,0,0,.28,1.54,3.79,3.79,0,0,0,.79,1.26,4,4,0,0,0,1.22.86A3.77,3.77,0,0,0,196,363.56Z"/><path class="cls-25" d="M204.28,354h4.23a6.87,6.87,0,0,1,2.44.43,5.78,5.78,0,0,1,1.91,1.17,5.25,5.25,0,0,1,1.24,1.77,5.5,5.5,0,0,1,.44,2.2v0a5.54,5.54,0,0,1-.44,2.2,5.29,5.29,0,0,1-1.24,1.78,6,6,0,0,1-1.91,1.18,6.66,6.66,0,0,1-2.44.43h-4.23Zm4.21,9.42a4.63,4.63,0,0,0,1.62-.28,3.52,3.52,0,0,0,1.24-.79,3.66,3.66,0,0,0,.8-1.2,4.19,4.19,0,0,0,.28-1.52v0a4.25,4.25,0,0,0-.28-1.53,3.6,3.6,0,0,0-.8-1.21,3.52,3.52,0,0,0-1.24-.79,4.21,4.21,0,0,0-1.62-.29h-2.24v7.64Z"/><path class="cls-25" d="M217,354h8.39v1.78h-6.41v2.87h5.68v1.78h-5.68v3h6.49v1.77H217Z"/><path class="cls-25" d="M227.53,356.73h2.16v2.19h-2.16Zm0,6.25h2.16v2.19h-2.16Z"/><rect class="cls-4" x="170.29" y="327.49" width="126.02" height="1.77"/><circle class="cls-26" cx="543.63" cy="241.97" r="133.79" transform="translate(-5.35 12.41) rotate(-1.3)"/><path class="cls-24" d="M473.73,256.57H487v23.21H434.5v-11l26.17-28.51a68.64,68.64,0,0,0,8.82-11.39,17.32,17.32,0,0,0,2.67-8.51,8.82,8.82,0,0,0-3-7.1q-2.94-2.51-8.32-2.51-6.72,0-9.61,4.25t-2.88,14.54v2.26l-13.23-.05c0-.48-.06-1-.08-1.49s0-1.29,0-2.33q0-14.69,6.45-21.88t19.61-7.18q11.49,0,18.26,5.88t6.78,15.84A24,24,0,0,1,483,232.42q-3.2,5.75-12.78,15.31L450,267.9h23.76Z"/><path class="cls-24" d="M496.36,250.1V230a64.33,64.33,0,0,1,.87-12.49A23.22,23.22,0,0,1,509,201.83a26.76,26.76,0,0,1,12.74-3,27.42,27.42,0,0,1,12.81,2.9,22.6,22.6,0,0,1,9,8.54,21,21,0,0,1,2.72,6.79,53.4,53.4,0,0,1,.81,10.61v25a53.45,53.45,0,0,1-.56,8.78,23.75,23.75,0,0,1-1.85,5.92,22.55,22.55,0,0,1-9,10.25,28.26,28.26,0,0,1-26.62.66,23.18,23.18,0,0,1-9-8.54,23.77,23.77,0,0,1-2.83-7.18A64.27,64.27,0,0,1,496.36,250.1Zm13.9-18.9V249q0,11.38,2.63,15.69t8.85,4.31q6.22,0,8.91-4.45T533.34,249V231.09q0-11.26-2.69-15.63t-8.91-4.37c-4.1,0-7,1.47-8.82,4.42S510.26,223.69,510.26,231.2Z"/><path class="cls-24" d="M596.94,220.37a19.07,19.07,0,0,1-6,14.18,19.8,19.8,0,0,1-14.37,5.83,19.55,19.55,0,0,1-14.26-5.83,20,20,0,0,1-.06-28.35,19.63,19.63,0,0,1,14.32-5.77A19.86,19.86,0,0,1,591,206.2,19,19,0,0,1,596.94,220.37Zm-20.2,9.12a9,9,0,0,0,9.16-9.09,8.72,8.72,0,0,0-2.65-6.49,9,9,0,0,0-6.51-2.6,9.07,9.07,0,0,0-6.56,2.63,9,9,0,0,0,0,12.9A9,9,0,0,0,576.74,229.49Zm46.49-30.61h8.07l-47.8,82.5h-8Zm27.17,60.89A19.13,19.13,0,0,1,644.45,274a20.43,20.43,0,0,1-28.61,0,19.87,19.87,0,0,1-.06-28.32,20.83,20.83,0,0,1,28.75,0A19.1,19.1,0,0,1,650.4,259.77Zm-20.29,9.12a9,9,0,0,0,6.6-2.61,9.21,9.21,0,0,0,0-13,9.05,9.05,0,0,0-6.57-2.61,8.94,8.94,0,0,0-6.51,2.64,9.11,9.11,0,0,0,0,12.91A9,9,0,0,0,630.11,268.89Z"/><path class="cls-27" d="M489.89,192.84v-4.45h3.48V165.27h-3.48v-4.45h24.72v8.72h-5.06v-4.23H499.18v8h9.25v4.8h-9.25v10.27h4.25v4.45Z"/><path class="cls-27" d="M516.82,192.84v-4.45h3.47V165.27h-3.47v-4.45h13.25v4.49h-4v23.08h8.12v-5h5.26v9.47Z"/><path class="cls-27" d="M548.34,188.39h3.46v4.45H540.17v-4.45h2.58l8.19-23.12h-3.5v-4.45h16.62v4.45h-3.74l8,23.12h3v4.45H559v-4.45h3.48l-2-5.82h-10.2Zm3.37-10.27h7.35l-3.65-10.86Z"/><path class="cls-27" d="M584.67,188.39h4.2v4.45h-14.2v-4.45h4.18V165.27h-4.22v4.62h-5.2v-9.07h24.66v9.07h-5.18v-4.62h-4.24Z"/><path class="cls-28" d="M498.05,305.17a15.93,15.93,0,0,1,4.85-11.85,16.6,16.6,0,0,1,12.15-4.78,18.57,18.57,0,0,1,6.22,1,15.48,15.48,0,0,1,5.14,3,16.86,16.86,0,0,1,4.22,5.66,16.73,16.73,0,0,1-3,18.31,16.14,16.14,0,0,1-5.61,3.93,17.94,17.94,0,0,1-7,1.32,16.59,16.59,0,0,1-12.13-4.8A15.92,15.92,0,0,1,498.05,305.17Zm6.18,0a11,11,0,0,0,3.09,8,11,11,0,0,0,15.48,0,11.92,11.92,0,0,0,0-16.06,11,11,0,0,0-15.43,0A11,11,0,0,0,504.23,305.17Z"/><path class="cls-28" d="M534.57,321.17v-4.45h3.48V293.6h-3.48v-4.45h24.72v8.73h-5.06v-4.24H543.86v8h9.25v4.79h-9.25v10.27h4.25v4.45Z"/><path class="cls-28" d="M561.49,321.17v-4.45H565V293.6h-3.48v-4.45h24.73v8.73h-5.07v-4.24H570.79v8H580v4.79h-9.24v10.27H575v4.45Z"/><g class="cls-29"><path class="cls-30" d="M111.94,126.82h7.7v36.65h23.21v6.9H111.94Z"/><path class="cls-30" d="M151.43,126.82h7.69v43.55h-7.69Z"/><path class="cls-30" d="M171,126.82h8.26l13.44,20.59,13.44-20.59h8.26v43.55h-7.7V139.14l-13.94,20.53h-.25l-13.81-20.4v31.1H171Z"/><path class="cls-30" d="M236.58,133.92h-14v-7.1h35.83v7.1h-14v36.45h-7.82Z"/><path class="cls-30" d="M266.61,126.82h32.67v6.91h-25v11.2h22.14v6.9H274.3v11.64h25.3v6.9h-33Z"/><path class="cls-30" d="M308.87,126.82h16.46a26.65,26.65,0,0,1,9.5,1.65,22.6,22.6,0,0,1,7.44,4.57,20.35,20.35,0,0,1,4.82,6.88,21.26,21.26,0,0,1,1.71,8.55v.13a21.48,21.48,0,0,1-1.71,8.58,20.18,20.18,0,0,1-4.82,6.91,22.84,22.84,0,0,1-7.44,4.6,26,26,0,0,1-9.5,1.68H308.87Zm16.4,36.65a17.45,17.45,0,0,0,6.31-1.1,13.81,13.81,0,0,0,4.82-3.06,13.65,13.65,0,0,0,3.09-4.68,15.5,15.5,0,0,0,1.11-5.91v-.12a15.73,15.73,0,0,0-1.11-5.94A13.59,13.59,0,0,0,336.4,138a14,14,0,0,0-4.82-3.1,17,17,0,0,0-6.31-1.12h-8.71v29.74Z"/><path class="cls-30" d="M137.78,198.07H119.15v-9.44H166.8v9.44H148.18v48.47h-10.4Z"/><path class="cls-30" d="M178.29,188.63h10.24v57.91H178.29Z"/><path class="cls-30" d="M204.3,188.63h11L233.16,216,251,188.63h11v57.91H251.78V205l-18.54,27.3h-.34l-18.37-27.13v41.36H204.3Z"/><path class="cls-30" d="M277.11,188.63h43.46v9.19H287.35v14.89h29.44v9.18H287.35v15.47H321v9.18H277.11Z"/><path class="cls-30" d="M135.49,307.8a25.64,25.64,0,0,1-10.07-1.92,23.88,23.88,0,0,1-14.77-22.24v-.13a23.94,23.94,0,0,1,1.84-9.37,23.66,23.66,0,0,1,5.17-7.71,24.81,24.81,0,0,1,7.89-5.27,25.36,25.36,0,0,1,10.07-1.94,25.67,25.67,0,0,1,10.07,1.91,23.93,23.93,0,0,1,7.83,5.2,23.66,23.66,0,0,1,5.1,7.68,23.93,23.93,0,0,1,1.84,9.36v.14a23.93,23.93,0,0,1-1.84,9.36,23.55,23.55,0,0,1-5.17,7.71,24.65,24.65,0,0,1-7.89,5.27A25.36,25.36,0,0,1,135.49,307.8Zm.13-7.59a15.78,15.78,0,0,0,6.47-1.3,15.39,15.39,0,0,0,5-3.56,16.37,16.37,0,0,0,3.29-5.27,17.46,17.46,0,0,0,1.18-6.44v-.13a17.74,17.74,0,0,0-1.18-6.48,15.75,15.75,0,0,0-8.44-8.89,16.53,16.53,0,0,0-13,0,15.22,15.22,0,0,0-5.05,3.55,16.48,16.48,0,0,0-3.29,5.27,17.46,17.46,0,0,0-1.18,6.44v.14a17.73,17.73,0,0,0,1.18,6.47,15.75,15.75,0,0,0,8.44,8.89A15.56,15.56,0,0,0,135.62,300.21Z"/><path class="cls-30" d="M170.6,260H206v7.45H178.9v12.95h24v7.45h-24V307h-8.3Z"/><path class="cls-30" d="M215.23,260h35.38v7.45H223.53v12.95h24v7.45h-24V307h-8.3Z"/><path class="cls-30" d="M259.87,260h35.24v7.45H268.17v12.08h23.88V287H268.17v12.55h27.28V307H259.87Z"/><path class="cls-30" d="M305.46,260h21.22a23.47,23.47,0,0,1,8,1.24,16,16,0,0,1,5.79,3.46,13.45,13.45,0,0,1,2.92,4.49,15.06,15.06,0,0,1,1,5.64V275a14.89,14.89,0,0,1-.85,5.2,13.56,13.56,0,0,1-2.34,4.1,14.31,14.31,0,0,1-3.57,3,18.34,18.34,0,0,1-4.6,1.91L345.87,307H336l-11.74-16.37H313.76V307h-8.3ZM326,283.3a11.17,11.17,0,0,0,7.17-2.12,7,7,0,0,0,2.66-5.76v-.13a6.91,6.91,0,0,0-2.59-5.83q-2.59-2-7.31-2H313.76V283.3Z"/></g><path class="cls-31" d="M111.94,121.53h7.7v36.64h23.21v6.9H111.94Z"/><path class="cls-32" d="M151.43,121.53h7.69v43.54h-7.69Z"/><path class="cls-33" d="M171,121.53h8.26l13.44,20.59,13.44-20.59h8.26v43.54h-7.7V133.84l-13.94,20.53h-.25L178.68,134v31.1H171Z"/><path class="cls-34" d="M236.58,128.62h-14v-7.09h35.83v7.09h-14v36.45h-7.82Z"/><path class="cls-35" d="M266.61,121.53h32.67v6.9h-25v11.2h22.14v6.9H274.3v11.64h25.3v6.9h-33Z"/><path class="cls-36" d="M308.87,121.53h16.46a26.65,26.65,0,0,1,9.5,1.64,22.46,22.46,0,0,1,7.44,4.58,20.31,20.31,0,0,1,4.82,6.87,21.3,21.3,0,0,1,1.71,8.55v.13a21.48,21.48,0,0,1-1.71,8.58,20.18,20.18,0,0,1-4.82,6.91,22.84,22.84,0,0,1-7.44,4.6,26,26,0,0,1-9.5,1.68H308.87Zm16.4,36.64a17.45,17.45,0,0,0,6.31-1.1,13.52,13.52,0,0,0,7.91-7.74,15.45,15.45,0,0,0,1.11-5.9v-.13a15.73,15.73,0,0,0-1.11-5.94,13.59,13.59,0,0,0-3.09-4.71,14.34,14.34,0,0,0-4.82-3.1,17.24,17.24,0,0,0-6.31-1.12h-8.71v29.74Z"/><path class="cls-37" d="M137.78,192.77H119.15v-9.44H166.8v9.44H148.18v48.48h-10.4Z"/><path class="cls-38" d="M178.29,183.33h10.24v57.92H178.29Z"/><path class="cls-39" d="M204.3,183.33h11l17.87,27.39L251,183.33h11v57.92H251.78V199.72L233.24,227h-.34l-18.37-27.14v41.37H204.3Z"/><path class="cls-40" d="M277.11,183.33h43.46v9.19H287.35v14.89h29.44v9.18H287.35v15.47H321v9.19H277.11Z"/><path class="cls-41" d="M135.49,302.5a25.82,25.82,0,0,1-10.07-1.91,24.09,24.09,0,0,1-7.83-5.2,24.12,24.12,0,0,1-6.94-17.05v-.13a23.93,23.93,0,0,1,7-17.08,24.81,24.81,0,0,1,7.89-5.27,25.36,25.36,0,0,1,10.07-1.94,25.67,25.67,0,0,1,10.07,1.91,23.93,23.93,0,0,1,7.83,5.2,23.66,23.66,0,0,1,5.1,7.68,23.93,23.93,0,0,1,1.84,9.36v.14a23.93,23.93,0,0,1-7,17.08,24.79,24.79,0,0,1-7.89,5.26A25.36,25.36,0,0,1,135.49,302.5Zm.13-7.58a15.78,15.78,0,0,0,6.47-1.31,15.25,15.25,0,0,0,5-3.56,16.37,16.37,0,0,0,3.29-5.27,17.46,17.46,0,0,0,1.18-6.44v-.13a17.78,17.78,0,0,0-1.18-6.48,15.75,15.75,0,0,0-8.44-8.89,16.53,16.53,0,0,0-13,0,15.37,15.37,0,0,0-5.05,3.55,16.48,16.48,0,0,0-3.29,5.27,17.49,17.49,0,0,0-1.18,6.44v.14a17.69,17.69,0,0,0,1.18,6.47,15.75,15.75,0,0,0,8.44,8.89A15.57,15.57,0,0,0,135.62,294.92Z"/><path class="cls-42" d="M170.6,254.72H206v7.45H178.9v12.95h24v7.45h-24v19.12h-8.3Z"/><path class="cls-43" d="M215.23,254.72h35.38v7.45H223.53v12.95h24v7.45h-24v19.12h-8.3Z"/><path class="cls-44" d="M259.87,254.72h35.24v7.45H268.17v12.08h23.88v7.45H268.17v12.55h27.28v7.44H259.87Z"/><path class="cls-45" d="M305.46,254.72h21.22a23.72,23.72,0,0,1,8,1.24,16,16,0,0,1,5.79,3.46,13.55,13.55,0,0,1,2.92,4.49,15.1,15.1,0,0,1,1,5.64v.14a14.87,14.87,0,0,1-.85,5.19,13.56,13.56,0,0,1-2.34,4.1,14.31,14.31,0,0,1-3.57,3,18,18,0,0,1-4.6,1.91l12.86,17.78H336l-11.74-16.37H313.76v16.37h-8.3ZM326,278a11.17,11.17,0,0,0,7.17-2.13,7,7,0,0,0,2.66-5.76V270a6.92,6.92,0,0,0-2.59-5.83q-2.59-2-7.31-2H313.76V278Z"/><text class="cls-46" transform="translate(235.61 366.94)"><tspan class="cls-47">M</tspan><tspan class="cls-48" x="17.99" y="0">V</tspan><tspan x="31.5" y="0">N</tspan><tspan class="cls-49" x="46.84" y="0">2</tspan><tspan x="57.8" y="0">0</tspan></text></g></g></g></svg>