<svg xmlns="http://www.w3.org/2000/svg" viewBox="0 0 805.67 352.6"><defs><style>.cls-1{opacity:0.08;}.cls-2{fill:#060606;}</style></defs><title>Asset 2</title><g id="Layer_2" data-name="Layer 2"><g id="Layer_1-2" data-name="Layer 1"><g id="layer1" class="cls-1"><path id="rect5882" class="cls-2" d="M697.25,5a7.72,7.72,0,0,0-7.72,7.73V28.54a72.18,72.18,0,0,0-8.87,3.65L669.49,21a7.71,7.71,0,0,0-10.92,0L636.3,43.29a7.74,7.74,0,0,0,0,10.93l11.17,11.16a70.64,70.64,0,0,0-3.65,8.87H628A7.72,7.72,0,0,0,620.28,82v31.47a7.73,7.73,0,0,0,7.73,7.73h15.78a71.27,71.27,0,0,0,3.65,8.87L636.3,141.2a7.73,7.73,0,0,0,0,10.92l22.27,22.27a7.7,7.7,0,0,0,10.92,0l11.17-11.16a72.35,72.35,0,0,0,8.87,3.68v15.75a7.71,7.71,0,0,0,7.72,7.72h31.44a7.72,7.72,0,0,0,7.73-7.72V166.88a72.18,72.18,0,0,0,8.87-3.65l11.16,11.16a7.7,7.7,0,0,0,10.92,0l22.27-22.27a7.71,7.71,0,0,0,0-10.92L778.48,130a72.83,72.83,0,0,0,3.65-8.87h15.81a7.73,7.73,0,0,0,7.73-7.73V82a7.72,7.72,0,0,0-7.73-7.72H782.16a71.27,71.27,0,0,0-3.65-8.87l11.13-11.16a7.73,7.73,0,0,0,0-10.93L767.37,21a7.71,7.71,0,0,0-10.92,0L745.29,32.19a72.35,72.35,0,0,0-8.87-3.68V12.73A7.73,7.73,0,0,0,728.69,5ZM705,20.45h16V33.61a7.72,7.72,0,0,0,5.88,7.48,58.38,58.38,0,0,1,16.33,6.76,7.73,7.73,0,0,0,9.44-1.15l9.29-9.29,11.35,11.34L764,58.05a7.7,7.7,0,0,0-1.15,9.44,58.78,58.78,0,0,1,6.73,16.33,7.73,7.73,0,0,0,7.51,5.88h13.12v16H777.09a7.72,7.72,0,0,0-7.51,5.88,58.67,58.67,0,0,1-6.76,16.3,7.73,7.73,0,0,0,1.15,9.47l9.29,9.29L761.91,158l-9.26-9.29a7.72,7.72,0,0,0-9.47-1.15,59,59,0,0,1-16.33,6.76,7.73,7.73,0,0,0-5.88,7.51v13.1H705V161.81a7.73,7.73,0,0,0-5.88-7.51,58.6,58.6,0,0,1-16.33-6.73,7.71,7.71,0,0,0-9.45,1.15L664,158l-11.34-11.35,9.26-9.29a7.71,7.71,0,0,0,1.15-9.44,58.6,58.6,0,0,1-6.73-16.33,7.72,7.72,0,0,0-7.52-5.88H635.73v-16h13.12a7.73,7.73,0,0,0,7.52-5.88,58.37,58.37,0,0,1,6.76-16.3A7.73,7.73,0,0,0,662,58.05l-9.29-9.3L664,37.41l9.27,9.29a7.71,7.71,0,0,0,9.47,1.15,58.56,58.56,0,0,1,16.29-6.76A7.73,7.73,0,0,0,705,33.57Zm8,34.91A42.35,42.35,0,1,0,755.3,97.69,42.44,42.44,0,0,0,713,55.36Zm0,15.45a26.9,26.9,0,1,1-26.88,26.88A26.77,26.77,0,0,1,713,70.81ZM506.14,105.42a7.72,7.72,0,0,0-7.73,7.72v23.39a96.75,96.75,0,0,0-15.6,6.42l-16.5-16.5a7.73,7.73,0,0,0-10.92,0L425,156.8a7.73,7.73,0,0,0,0,10.93l16.51,16.53a97.77,97.77,0,0,0-6.43,15.57H411.73a7.72,7.72,0,0,0-7.73,7.72v42.94a7.72,7.72,0,0,0,7.73,7.73h23.38a96.31,96.31,0,0,0,6.43,15.59L425,290.32a7.71,7.71,0,0,0,0,10.92l30.36,30.36a7.73,7.73,0,0,0,10.92,0l16.53-16.54a96.85,96.85,0,0,0,15.57,6.43v23.38a7.73,7.73,0,0,0,7.73,7.73H549a7.73,7.73,0,0,0,7.73-7.73V321.52a97.17,97.17,0,0,0,15.6-6.43l16.5,16.51a7.73,7.73,0,0,0,10.92,0l30.36-30.36a7.73,7.73,0,0,0,0-10.92l-16.5-16.53a98.11,98.11,0,0,0,6.42-15.57h23.38a7.73,7.73,0,0,0,7.73-7.73V207.55a7.73,7.73,0,0,0-7.73-7.72H620.07a99.16,99.16,0,0,0-6.42-15.6l16.5-16.5a7.74,7.74,0,0,0,0-10.93l-30.36-30.35a7.73,7.73,0,0,0-10.92,0L572.34,143a98.27,98.27,0,0,0-15.57-6.42V113.14a7.72,7.72,0,0,0-7.73-7.72Zm7.72,15.45h27.46v20.72a7.72,7.72,0,0,0,5.88,7.52,82.18,82.18,0,0,1,23,9.54,7.73,7.73,0,0,0,9.47-1.15l14.64-14.67,19.44,19.44L599.13,176.9a7.73,7.73,0,0,0-1.15,9.47,82.54,82.54,0,0,1,9.54,23,7.73,7.73,0,0,0,7.51,5.88h20.7v27.49H615a7.71,7.71,0,0,0-7.48,5.88,82.3,82.3,0,0,1-9.54,23,7.75,7.75,0,0,0,1.15,9.48l14.64,14.66-19.44,19.43-14.64-14.63a7.71,7.71,0,0,0-9.44-1.15,82.37,82.37,0,0,1-23,9.54,7.71,7.71,0,0,0-5.88,7.48v20.7H513.86v-20.7a7.71,7.71,0,0,0-5.89-7.51,82.73,82.73,0,0,1-23-9.54,7.73,7.73,0,0,0-9.47,1.15l-14.63,14.66-19.43-19.43,14.63-14.63a7.74,7.74,0,0,0,1.15-9.48,81.86,81.86,0,0,1-9.53-23,7.75,7.75,0,0,0-7.52-5.88h-20.7V215.28h20.73a7.74,7.74,0,0,0,7.49-5.88,81.92,81.92,0,0,1,9.53-23,7.73,7.73,0,0,0-1.15-9.44l-14.63-14.66,19.43-19.44,14.63,14.64a7.74,7.74,0,0,0,9.45,1.14,82.4,82.4,0,0,1,23-9.53,7.71,7.71,0,0,0,5.89-7.49Zm13.73,53.22A54.94,54.94,0,1,0,582.51,229,55,55,0,0,0,527.59,174.09Zm0,15.45A39.48,39.48,0,1,1,488.12,229,39.33,39.33,0,0,1,527.59,189.54Z"/></g><g id="layer1-2" data-name="layer1" class="cls-1"><path id="rect5882-2" data-name="rect5882" class="cls-2" d="M108.42,347.6a7.73,7.73,0,0,0,7.72-7.73V324.06a73.78,73.78,0,0,0,8.87-3.65l11.16,11.16a7.71,7.71,0,0,0,10.92,0l22.28-22.26a7.74,7.74,0,0,0,0-10.93L158.2,287.22a72.18,72.18,0,0,0,3.65-8.87h15.81a7.72,7.72,0,0,0,7.73-7.73V239.16a7.73,7.73,0,0,0-7.73-7.73H161.88a71.27,71.27,0,0,0-3.65-8.87l11.14-11.17a7.73,7.73,0,0,0,0-10.92l-22.28-22.26a7.7,7.7,0,0,0-10.92,0L125,189.37a72.35,72.35,0,0,0-8.87-3.68V169.94a7.73,7.73,0,0,0-7.72-7.73H77a7.73,7.73,0,0,0-7.72,7.73v15.77a73.83,73.83,0,0,0-8.87,3.66L49.21,178.21a7.7,7.7,0,0,0-10.92,0L16,200.47a7.73,7.73,0,0,0,0,10.92l11.17,11.17a71.27,71.27,0,0,0-3.65,8.87H7.72A7.72,7.72,0,0,0,0,239.16v31.46a7.71,7.71,0,0,0,7.72,7.73H23.51a71.9,71.9,0,0,0,3.65,8.87L16,298.38a7.74,7.74,0,0,0,0,10.93l22.27,22.26a7.71,7.71,0,0,0,10.92,0l11.17-11.16a74,74,0,0,0,8.87,3.68v15.78A7.73,7.73,0,0,0,77,347.6Zm-7.73-15.45h-16V319a7.72,7.72,0,0,0-5.89-7.48,58.62,58.62,0,0,1-16.32-6.76A7.73,7.73,0,0,0,53,305.89l-9.29,9.3L32.41,303.84l9.26-9.29a7.7,7.7,0,0,0,1.15-9.44,58.6,58.6,0,0,1-6.73-16.33,7.73,7.73,0,0,0-7.52-5.88H15.45v-16H28.57A7.74,7.74,0,0,0,36.09,241a58.61,58.61,0,0,1,6.76-16.29,7.73,7.73,0,0,0-1.15-9.47l-9.29-9.29,11.34-11.35L53,203.88A7.73,7.73,0,0,0,62.49,205a58.32,58.32,0,0,1,16.32-6.76,7.74,7.74,0,0,0,5.89-7.51v-13.1h16v13.13a7.73,7.73,0,0,0,5.88,7.51A58,58,0,0,1,122.89,205a7.74,7.74,0,0,0,9.45-1.15l9.29-9.29L153,205.94l-9.27,9.29a7.73,7.73,0,0,0-1.14,9.44A58.84,58.84,0,0,1,149.3,241a7.72,7.72,0,0,0,7.51,5.89h13.13v16H156.81a7.72,7.72,0,0,0-7.51,5.88,58.67,58.67,0,0,1-6.76,16.3,7.72,7.72,0,0,0,1.15,9.47l9.29,9.29-11.35,11.35-9.26-9.3a7.73,7.73,0,0,0-9.48-1.14,58.43,58.43,0,0,1-16.29,6.76,7.72,7.72,0,0,0-5.91,7.51Zm-8-34.91A42.35,42.35,0,1,0,50.36,254.9,42.45,42.45,0,0,0,92.69,297.24Zm0-15.45a26.9,26.9,0,1,1,26.89-26.89A26.77,26.77,0,0,1,92.69,281.79Zm206.84-34.61a7.73,7.73,0,0,0,7.73-7.72V216.07a98,98,0,0,0,15.59-6.43l16.51,16.51a7.73,7.73,0,0,0,10.92,0l30.35-30.35a7.73,7.73,0,0,0,0-10.93l-16.5-16.54a98.21,98.21,0,0,0,6.43-15.56h23.38a7.72,7.72,0,0,0,7.73-7.73V102.11a7.72,7.72,0,0,0-7.73-7.73H370.56a97.71,97.71,0,0,0-6.43-15.6l16.5-16.5a7.71,7.71,0,0,0,0-10.92L350.28,21a7.71,7.71,0,0,0-10.92,0L322.82,37.54a96.74,96.74,0,0,0-15.56-6.43V7.72A7.73,7.73,0,0,0,299.53,0h-42.9a7.72,7.72,0,0,0-7.73,7.72V31.08a97.66,97.66,0,0,0-15.6,6.42L216.8,21a7.71,7.71,0,0,0-10.92,0L175.52,51.36a7.71,7.71,0,0,0,0,10.92L192,78.81a97.73,97.73,0,0,0-6.42,15.57H162.21a7.71,7.71,0,0,0-7.72,7.73V145a7.72,7.72,0,0,0,7.72,7.73H185.6a99,99,0,0,0,6.42,15.6l-16.5,16.5a7.73,7.73,0,0,0,0,10.93l30.36,30.35a7.73,7.73,0,0,0,10.92,0l16.53-16.54A97.39,97.39,0,0,0,248.9,216v23.42a7.72,7.72,0,0,0,7.73,7.72Zm-7.72-15.45H264.35V211a7.73,7.73,0,0,0-5.88-7.51,82.12,82.12,0,0,1-23-9.54A7.72,7.72,0,0,0,226,195.1l-14.63,14.66L191.9,190.33l14.64-14.63a7.76,7.76,0,0,0,1.15-9.48,82.36,82.36,0,0,1-9.54-23,7.73,7.73,0,0,0-7.51-5.88h-20.7V109.83h20.72a7.71,7.71,0,0,0,7.49-5.88,82.3,82.3,0,0,1,9.54-23,7.76,7.76,0,0,0-1.15-9.48L191.9,56.82l19.44-19.44L226,52a7.7,7.7,0,0,0,9.44,1.14,82.7,82.7,0,0,1,23.06-9.53,7.71,7.71,0,0,0,5.88-7.48V15.45h27.46v20.7a7.71,7.71,0,0,0,5.88,7.51,82.16,82.16,0,0,1,23,9.53A7.72,7.72,0,0,0,330.19,52l14.63-14.66,19.43,19.44L349.62,71.45a7.72,7.72,0,0,0-1.15,9.47A82.34,82.34,0,0,1,358,104a7.75,7.75,0,0,0,7.52,5.88h20.7v27.49H365.49A7.73,7.73,0,0,0,358,143.2a82,82,0,0,1-9.53,23,7.73,7.73,0,0,0,1.15,9.45l14.63,14.66-19.43,19.43-14.63-14.63a7.73,7.73,0,0,0-9.45-1.14,82.34,82.34,0,0,1-23.05,9.53,7.7,7.7,0,0,0-5.88,7.48Zm-13.73-53.22a54.94,54.94,0,1,0-54.92-54.92A55,55,0,0,0,278.08,178.51Zm0-15.45a39.49,39.49,0,1,1,39.47-39.47A39.34,39.34,0,0,1,278.08,163.06Z"/></g></g></g></svg>