<svg xmlns="http://www.w3.org/2000/svg" viewBox="0 0 38.05 38.05"><defs><style>.cls-1{fill:#d00;}.cls-2{fill:#fff;}</style></defs><title>Asset 8</title><g id="Layer_2" data-name="Layer 2"><g id="Layer_1-2" data-name="Layer 1"><rect class="cls-1" width="38.05" height="38.05" rx="2" ry="2"/><path class="cls-2" d="M26.51,20.29a13.53,13.53,0,0,0-.18-2A2.75,2.75,0,0,0,24,15.77a9.89,9.89,0,0,0-1.57-.15,3.61,3.61,0,0,0-3.08,1.43l-1,1.31V15.64H16.09v11h2.37V25.17c0-1.4,0-2.8,0-4.19a5.69,5.69,0,0,1,.21-1.6,2.46,2.46,0,0,1,2.59-1.89h.19a2.39,2.39,0,0,1,2.39,2.08A10.09,10.09,0,0,1,24,21.43c0,1.24,0,2.48,0,3.72v1.51h2.48V25.2C26.53,23.56,26.53,21.92,26.51,20.29Z"/><rect class="cls-2" x="11.54" y="15.65" width="2.43" height="11"/><path class="cls-2" d="M12.74,11.39a1.2,1.2,0,0,0-1.22,1.2,1.27,1.27,0,0,0,.35.88,1.22,1.22,0,0,0,.87.35h0a1.22,1.22,0,1,0,0-2.43Z"/></g></g></svg>