<svg xmlns="http://www.w3.org/2000/svg" viewBox="0 0 38.05 38.05"><defs><style>.cls-1{fill:#d00;}.cls-2{fill:#fff;}</style></defs><title>Asset 7</title><g id="Layer_2" data-name="Layer 2"><g id="Layer_1-2" data-name="Layer 1"><rect class="cls-1" width="38.05" height="38.05" rx="2" ry="2"/><path class="cls-2" d="M16.11,27.33a15,15,0,0,1-7-1.86.45.45,0,0,1-.2-.54.46.46,0,0,1,.43-.31,8.74,8.74,0,0,0,1.09.07,6.27,6.27,0,0,0,3.53-1l.34-.22L14,23.2c-1.92-1.45-6.12-5.49-3.53-11.46a.44.44,0,0,1,.38-.27h0a.5.5,0,0,1,.43.21c.08.12,2,3.05,6.84,3.66l.32.05v-.33a4.37,4.37,0,0,1,4.36-4.34,4.3,4.3,0,0,1,2.88,1.09l.12.11.09,0c1.09-.12,2-.15,2.21-.16h0a.5.5,0,0,1,.19,0l.14.05.06-.05a.45.45,0,0,1,.16,0,.51.51,0,0,1,.17,0,.45.45,0,0,1,.25.24.47.47,0,0,1,0,.35,9.23,9.23,0,0,1-1.7,2.9l-.14.13,0,.11c.22,2-.25,5.12-3.68,8.65A10.15,10.15,0,0,1,16.11,27.33ZM12.5,25.9a12.47,12.47,0,0,0,3.55.55,9.35,9.35,0,0,0,6.92-3c3.35-3.45,3.68-6.41,3.37-8.29a.47.47,0,0,1,.22-.47,4.37,4.37,0,0,0,1.2-1.64l.22-.45-.5,0c-.42,0-1.09.08-1.81.16h0a.47.47,0,0,1-.38-.14,3.44,3.44,0,0,0-5.91,2.39,3.22,3.22,0,0,0,.08.71.46.46,0,0,1-.45.56,11.57,11.57,0,0,1-7.63-3.16L11,12.85l-.13.47c-1.71,6,4.17,9.51,4.42,9.66a.49.49,0,0,1,.22.32.47.47,0,0,1-.11.38,6.27,6.27,0,0,1-2.91,1.67l-1,.26Z"/></g></g></svg>