<svg xmlns="http://www.w3.org/2000/svg" viewBox="0 0 132.9 38.05"><defs><style>.cls-1{fill:#d00;}.cls-2{fill:#fff;}</style></defs><title>Asset 5</title><g id="Layer_2" data-name="Layer 2"><g id="Layer_1-2" data-name="Layer 1"><rect class="cls-1" width="38.05" height="38.05" rx="2" ry="2"/><path class="cls-2" d="M14,9a5,5,0,0,0-5,5V24a5,5,0,0,0,5,5H24a5,5,0,0,0,5-5V14a5,5,0,0,0-5-5Zm0,1.12H24A3.86,3.86,0,0,1,27.91,14V24A3.86,3.86,0,0,1,24,27.91H14A3.86,3.86,0,0,1,10.14,24V14A3.86,3.86,0,0,1,14,10.14ZM24.58,11.8a1.11,1.11,0,1,0,1.11,1.11A1.11,1.11,0,0,0,24.58,11.8ZM19,14.3A4.73,4.73,0,1,0,23.75,19,4.73,4.73,0,0,0,19,14.3Zm0,1.11A3.62,3.62,0,1,1,15.41,19,3.6,3.6,0,0,1,19,15.41Z"/><rect class="cls-1" x="47.43" width="38.05" height="38.05" rx="2" ry="2"/><path class="cls-2" d="M63.54,27.33a15.09,15.09,0,0,1-7-1.86.45.45,0,0,1-.19-.54.44.44,0,0,1,.42-.31,8.9,8.9,0,0,0,1.1.07,6.27,6.27,0,0,0,3.53-1l.33-.22-.32-.25c-1.92-1.45-6.12-5.49-3.54-11.46a.47.47,0,0,1,.39-.27h0a.49.49,0,0,1,.42.21c.08.12,2,3.05,6.85,3.66l.32.05v-.33a4.37,4.37,0,0,1,4.36-4.34,4.3,4.3,0,0,1,2.87,1.09l.13.11.09,0c1.08-.12,2-.15,2.21-.16h0a.54.54,0,0,1,.19,0l.13.05.07-.05a.45.45,0,0,1,.16,0,.41.41,0,0,1,.16,0,.44.44,0,0,1,.26.24.43.43,0,0,1,0,.35,9,9,0,0,1-1.7,2.9l-.14.13.06.11c.21,2-.25,5.12-3.68,8.65A10.18,10.18,0,0,1,63.54,27.33ZM59.93,25.9a12.47,12.47,0,0,0,3.55.55,9.37,9.37,0,0,0,6.92-3c3.35-3.45,3.68-6.41,3.37-8.29a.45.45,0,0,1,.22-.47,4.38,4.38,0,0,0,1.19-1.64l.23-.45-.5,0c-.43,0-1.09.08-1.82.16h0a.47.47,0,0,1-.38-.14,3.44,3.44,0,0,0-5.91,2.39,3.22,3.22,0,0,0,.08.71.46.46,0,0,1-.45.56,11.61,11.61,0,0,1-7.64-3.16l-.34-.34-.14.47c-1.7,6,4.17,9.51,4.42,9.66a.5.5,0,0,1,.23.32.47.47,0,0,1-.11.38,6.27,6.27,0,0,1-2.92,1.67l-1,.26Z"/><rect class="cls-1" x="94.85" width="38.05" height="38.05" rx="2" ry="2"/><path class="cls-2" d="M121.36,20.29a11.3,11.3,0,0,0-.18-2,2.74,2.74,0,0,0-2.34-2.51,10.11,10.11,0,0,0-1.58-.15,3.61,3.61,0,0,0-3.08,1.43l-1,1.31V15.64H111v11h2.37V25.17c0-1.4,0-2.8,0-4.19a6.08,6.08,0,0,1,.21-1.6,2.46,2.46,0,0,1,2.6-1.89h.19a2.39,2.39,0,0,1,2.38,2.08,9.29,9.29,0,0,1,.17,1.86c0,1.24,0,2.48,0,3.72v1.51h2.48V25.2C121.38,23.56,121.38,21.92,121.36,20.29Z"/><rect class="cls-2" x="106.39" y="15.65" width="2.43" height="11"/><path class="cls-2" d="M107.59,11.39a1.22,1.22,0,1,0,0,2.43h0a1.22,1.22,0,0,0,.87-2.08A1.18,1.18,0,0,0,107.59,11.39Z"/></g></g></svg>