<svg xmlns="http://www.w3.org/2000/svg" viewBox="0 0 382.62 167.45"><defs><style>.cls-1{opacity:0.08;}.cls-2{fill:#060606;}</style></defs><title>Asset 9</title><g id="Layer_2" data-name="Layer 2"><g id="Layer_1-2" data-name="Layer 1"><g id="layer1" class="cls-1"><path id="rect5882" class="cls-2" d="M331.13,2.37A3.67,3.67,0,0,0,327.46,6v7.51a33.59,33.59,0,0,0-4.21,1.74L318,10a3.66,3.66,0,0,0-5.19,0L302.18,20.56a3.68,3.68,0,0,0,0,5.19l5.31,5.3a33.59,33.59,0,0,0-1.74,4.21h-7.51a3.67,3.67,0,0,0-3.67,3.67V53.87a3.67,3.67,0,0,0,3.67,3.67h7.5a33.67,33.67,0,0,0,1.73,4.22l-5.29,5.3a3.66,3.66,0,0,0,0,5.18l10.58,10.58a3.66,3.66,0,0,0,5.19,0l5.3-5.3a35.22,35.22,0,0,0,4.21,1.75v7.48a3.66,3.66,0,0,0,3.67,3.66h14.93a3.66,3.66,0,0,0,3.67-3.66v-7.5a35.11,35.11,0,0,0,4.21-1.73l5.3,5.3a3.66,3.66,0,0,0,5.19,0L375,72.24a3.65,3.65,0,0,0,0-5.18l-5.3-5.3a33.73,33.73,0,0,0,1.74-4.22H379a3.67,3.67,0,0,0,3.67-3.67V38.93A3.67,3.67,0,0,0,379,35.26h-7.5a34.17,34.17,0,0,0-1.73-4.21l5.28-5.3a3.66,3.66,0,0,0,0-5.19L364.43,10a3.66,3.66,0,0,0-5.19,0l-5.3,5.3a33.65,33.65,0,0,0-4.21-1.75V6a3.67,3.67,0,0,0-3.67-3.67Zm3.67,7.34h7.59V16a3.66,3.66,0,0,0,2.8,3.55,28,28,0,0,1,7.75,3.21,3.66,3.66,0,0,0,4.48-.54l4.42-4.42,5.38,5.39-4.39,4.42a3.66,3.66,0,0,0-.55,4.48,28,28,0,0,1,3.2,7.75,3.67,3.67,0,0,0,3.57,2.8h6.23v7.61h-6.23A3.65,3.65,0,0,0,365.48,53a28.1,28.1,0,0,1-3.21,7.74,3.66,3.66,0,0,0,.54,4.5l4.41,4.41L361.84,75l-4.4-4.41a3.66,3.66,0,0,0-4.5-.55,27.68,27.68,0,0,1-7.75,3.21,3.67,3.67,0,0,0-2.8,3.57v6.22H334.8V76.84a3.67,3.67,0,0,0-2.8-3.56,27.65,27.65,0,0,1-7.75-3.2,3.66,3.66,0,0,0-4.48.55L315.35,75,310,69.65l4.4-4.41a3.69,3.69,0,0,0,.54-4.49,27.83,27.83,0,0,1-3.2-7.75,3.65,3.65,0,0,0-3.57-2.79h-6.23V42.6h6.23a3.67,3.67,0,0,0,3.57-2.8,28,28,0,0,1,3.21-7.73,3.66,3.66,0,0,0-.54-4.5L310,23.15l5.38-5.39,4.4,4.42a3.66,3.66,0,0,0,4.5.54A27.92,27.92,0,0,1,332,19.51a3.67,3.67,0,0,0,2.81-3.57Zm3.8,16.58A20.11,20.11,0,1,0,358.7,46.4,20.16,20.16,0,0,0,338.6,26.29Zm0,7.34A12.78,12.78,0,1,1,325.83,46.4,12.71,12.71,0,0,1,338.6,33.63ZM240.37,50.06a3.67,3.67,0,0,0-3.67,3.67V64.84a45.11,45.11,0,0,0-7.41,3l-7.84-7.84a3.66,3.66,0,0,0-5.18,0L201.85,74.47a3.66,3.66,0,0,0,0,5.18l7.84,7.86a47.15,47.15,0,0,0-3.06,7.39h-11.1a3.67,3.67,0,0,0-3.67,3.67V119a3.67,3.67,0,0,0,3.67,3.67h11.1a46.43,46.43,0,0,0,3.06,7.41l-7.84,7.84a3.66,3.66,0,0,0,0,5.18l14.42,14.42a3.66,3.66,0,0,0,5.18,0l7.86-7.86a45.83,45.83,0,0,0,7.39,3.06v11.1a3.67,3.67,0,0,0,3.67,3.67h20.37a3.67,3.67,0,0,0,3.67-3.67V152.69a46,46,0,0,0,7.41-3.05l7.84,7.84a3.66,3.66,0,0,0,5.18,0l14.42-14.42a3.66,3.66,0,0,0,0-5.18L291.42,130a45.27,45.27,0,0,0,3.05-7.39h11.11a3.67,3.67,0,0,0,3.67-3.67V98.57a3.67,3.67,0,0,0-3.67-3.67H294.47a46,46,0,0,0-3.05-7.41l7.84-7.84a3.66,3.66,0,0,0,0-5.18L284.84,60.05a3.66,3.66,0,0,0-5.18,0l-7.85,7.85a47.21,47.21,0,0,0-7.4-3.05V53.73a3.67,3.67,0,0,0-3.67-3.67ZM244,57.4h13v9.84a3.65,3.65,0,0,0,2.79,3.57,39.36,39.36,0,0,1,10.93,4.53,3.67,3.67,0,0,0,4.5-.54l6.95-7,9.23,9.23-7,7a3.68,3.68,0,0,0-.55,4.5,38.77,38.77,0,0,1,4.53,10.93,3.69,3.69,0,0,0,3.57,2.8h9.83v13.05h-9.84a3.67,3.67,0,0,0-3.56,2.8A38.65,38.65,0,0,1,284,129a3.67,3.67,0,0,0,.55,4.5l7,7-9.23,9.23-6.95-6.95a3.66,3.66,0,0,0-4.48-.55,39,39,0,0,1-10.95,4.53,3.65,3.65,0,0,0-2.79,3.55v9.83H244v-9.83a3.67,3.67,0,0,0-2.8-3.56,39.36,39.36,0,0,1-10.93-4.53,3.67,3.67,0,0,0-4.5.54l-6.95,7-9.23-9.23,7-6.95a3.66,3.66,0,0,0,.54-4.5,39.16,39.16,0,0,1-4.52-10.93,3.68,3.68,0,0,0-3.57-2.8H199.2V102.24H209a3.68,3.68,0,0,0,3.56-2.8,39,39,0,0,1,4.52-10.93,3.66,3.66,0,0,0-.54-4.49l-7-7,9.23-9.23,6.95,7a3.65,3.65,0,0,0,4.48.54,39.28,39.28,0,0,1,11-4.52,3.68,3.68,0,0,0,2.8-3.56Zm6.51,25.28a26.09,26.09,0,1,0,26.09,26.08A26.13,26.13,0,0,0,250.55,82.68Zm0,7.33a18.75,18.75,0,1,1-18.74,18.75A18.69,18.69,0,0,1,250.55,90Z"/></g><g id="layer1-2" data-name="layer1" class="cls-1"><path id="rect5882-2" data-name="rect5882" class="cls-2" d="M51.49,165.08a3.67,3.67,0,0,0,3.66-3.67V153.9a33.73,33.73,0,0,0,4.22-1.74l5.3,5.31a3.68,3.68,0,0,0,5.19,0l10.57-10.58a3.68,3.68,0,0,0,0-5.19l-5.3-5.3a33.54,33.54,0,0,0,1.73-4.21h7.51A3.67,3.67,0,0,0,88,128.52V113.58a3.67,3.67,0,0,0-3.67-3.67H76.88a33.73,33.73,0,0,0-1.74-4.22l5.29-5.3a3.66,3.66,0,0,0,0-5.18L69.86,84.63a3.66,3.66,0,0,0-5.19,0l-5.3,5.3a37.1,37.1,0,0,0-4.22-1.75V80.7A3.66,3.66,0,0,0,51.49,77H36.55a3.66,3.66,0,0,0-3.66,3.66v7.5a35.25,35.25,0,0,0-4.22,1.73l-5.3-5.3a3.65,3.65,0,0,0-5.18,0L7.61,95.21a3.66,3.66,0,0,0,0,5.18l5.3,5.3a33.67,33.67,0,0,0-1.73,4.22H3.67A3.67,3.67,0,0,0,0,113.58v14.94a3.67,3.67,0,0,0,3.67,3.67h7.49a34.23,34.23,0,0,0,1.74,4.21l-5.29,5.3a3.68,3.68,0,0,0,0,5.19l10.58,10.58a3.66,3.66,0,0,0,5.18,0l5.3-5.31a33.79,33.79,0,0,0,4.22,1.75v7.5a3.67,3.67,0,0,0,3.66,3.67Zm-3.67-7.34h-7.6v-6.25a3.67,3.67,0,0,0-2.79-3.55,27.85,27.85,0,0,1-7.75-3.21,3.67,3.67,0,0,0-4.49.54l-4.41,4.42-5.39-5.39,4.4-4.42a3.65,3.65,0,0,0,.54-4.48,27.93,27.93,0,0,1-3.19-7.75,3.68,3.68,0,0,0-3.57-2.8H7.34v-7.61h6.23a3.66,3.66,0,0,0,3.57-2.79,27.5,27.5,0,0,1,3.21-7.74,3.68,3.68,0,0,0-.55-4.5L15.39,97.8l5.39-5.39,4.4,4.41a3.66,3.66,0,0,0,4.5.55,27.56,27.56,0,0,1,7.75-3.21,3.67,3.67,0,0,0,2.79-3.57V84.37h7.6v6.24a3.66,3.66,0,0,0,2.79,3.56,27.53,27.53,0,0,1,7.75,3.2,3.67,3.67,0,0,0,4.49-.55l4.41-4.41,5.39,5.39-4.4,4.41a3.66,3.66,0,0,0-.54,4.49,27.8,27.8,0,0,1,3.19,7.75,3.66,3.66,0,0,0,3.57,2.79H80.7v7.61H74.47a3.68,3.68,0,0,0-3.57,2.8,27.44,27.44,0,0,1-3.21,7.73,3.67,3.67,0,0,0,.55,4.5l4.41,4.42-5.39,5.39-4.4-4.42a3.66,3.66,0,0,0-4.5-.54,27.73,27.73,0,0,1-7.73,3.21,3.67,3.67,0,0,0-2.81,3.57ZM44,141.16a20.11,20.11,0,1,0-20.1-20.11A20.16,20.16,0,0,0,44,141.16Zm0-7.34a12.78,12.78,0,1,1,12.77-12.77A12.72,12.72,0,0,1,44,133.82Zm98.23-16.43a3.67,3.67,0,0,0,3.67-3.67V102.61a45.84,45.84,0,0,0,7.41-3l7.83,7.84a3.68,3.68,0,0,0,5.19,0L180.76,93a3.65,3.65,0,0,0,0-5.18l-7.83-7.86a47.11,47.11,0,0,0,3-7.39h11.1a3.67,3.67,0,0,0,3.67-3.67V48.49a3.67,3.67,0,0,0-3.67-3.67H176a47.32,47.32,0,0,0-3-7.41l7.83-7.84a3.65,3.65,0,0,0,0-5.18L166.35,10a3.68,3.68,0,0,0-5.19,0l-7.85,7.86a46.21,46.21,0,0,0-7.39-3.06V3.67A3.67,3.67,0,0,0,142.25,0H121.87a3.67,3.67,0,0,0-3.67,3.67V14.76a45.9,45.9,0,0,0-7.4,3L103,10a3.68,3.68,0,0,0-5.19,0L83.36,24.39a3.65,3.65,0,0,0,0,5.18l7.83,7.86a46.17,46.17,0,0,0-3,7.39H77a3.67,3.67,0,0,0-3.67,3.67V68.88A3.67,3.67,0,0,0,77,72.55h11.1a46.93,46.93,0,0,0,3,7.41L83.36,87.8a3.65,3.65,0,0,0,0,5.18L97.77,107.4a3.68,3.68,0,0,0,5.19,0l7.85-7.85a46.71,46.71,0,0,0,7.39,3v11.12a3.67,3.67,0,0,0,3.67,3.67Zm-3.67-7.34h-13v-9.84a3.66,3.66,0,0,0-2.79-3.57,39.3,39.3,0,0,1-10.94-4.53,3.66,3.66,0,0,0-4.49.54l-7,7-9.23-9.23,7-7a3.67,3.67,0,0,0,.54-4.5A39.06,39.06,0,0,1,94.1,68a3.68,3.68,0,0,0-3.57-2.8H80.7v-13h9.85a3.67,3.67,0,0,0,3.55-2.8,38.94,38.94,0,0,1,4.53-10.91,3.67,3.67,0,0,0-.54-4.5l-7-7,9.23-9.23,7,7a3.66,3.66,0,0,0,4.48.55,39.06,39.06,0,0,1,11-4.53,3.66,3.66,0,0,0,2.79-3.55V7.34h13v9.83a3.66,3.66,0,0,0,2.8,3.56,39.36,39.36,0,0,1,10.93,4.53,3.68,3.68,0,0,0,4.5-.54l6.95-7L173,27l-6.94,7a3.66,3.66,0,0,0-.55,4.5A39.18,39.18,0,0,1,170,49.36a3.67,3.67,0,0,0,3.57,2.8h9.83v13h-9.85A3.67,3.67,0,0,0,170,68a39.06,39.06,0,0,1-4.53,10.93,3.68,3.68,0,0,0,.55,4.49l6.94,7-9.22,9.23-6.95-7a3.66,3.66,0,0,0-4.49-.54,39.1,39.1,0,0,1-10.94,4.52,3.67,3.67,0,0,0-2.8,3.56Zm-6.52-25.28A26.09,26.09,0,1,0,106,58.69,26.13,26.13,0,0,0,132.06,84.77Zm0-7.33A18.75,18.75,0,1,1,150.8,58.69,18.68,18.68,0,0,1,132.06,77.44Z"/></g></g></g></svg>