<svg xmlns="http://www.w3.org/2000/svg" viewBox="0 0 113.71 121.87"><defs><style>.cls-1,.cls-2{fill-rule:evenodd;}.cls-2{fill:#fafafc;}.cls-3{fill:#ec1c24;}.cls-3,.cls-6{stroke:#ec1c24;}.cls-3,.cls-4,.cls-5,.cls-6,.cls-7{stroke-miterlimit:10;}.cls-4,.cls-6,.cls-7{fill:none;}.cls-4,.cls-5{stroke:#a6a8ab;}.cls-5{fill:#a6a8ab;}.cls-6{stroke-width:2px;}.cls-7{stroke:#fff;stroke-width:3px;}.cls-8{font-size:12.12px;fill:#231f20;font-family:EthnocentricRg-Regular, Ethnocentric;}.cls-9{font-size:6.47px;fill:#424143;font-family:BookmanOldStyle, Bookman Old Style;}</style></defs><title>Asset 1</title><g id="Layer_2" data-name="Layer 2"><g id="Layer_1-2" data-name="Layer 1"><path class="cls-1" d="M72.43,81.8c.07,0,0-.13.11-.11-.11,0-.2.11-.22.22-.89,0-1.64-.55-2.47-.26s-1,1.32-.63,2.21c.23.52.84,1.26.48,1.55s-1.68-.85-2.51-.81a1.37,1.37,0,0,0-1.14.74c-.46.93.33,1.85.07,2.8-.46.22-.83-.28-1.11-.55a2.73,2.73,0,0,0-1.11-.77,1.41,1.41,0,0,0-1.62.73c-.23.51-.06,2.27-.44,2.44s-.66-.42-.85-.74c-.37-.61-.74-1.28-1.63-1.29-1.57,0-1.33,1.83-2,2.69-.55,0-.61-.57-.7-.88C56.4,89,56,88,54.9,88.07c-.74.05-1.14.62-1.48,1.26-.22.4-.42.89-.7.88s-.4-.22-.45-.63a6.39,6.39,0,0,0-.22-1.66,1.37,1.37,0,0,0-1.7-.77,2.43,2.43,0,0,0-.66.4c-.29.24-1,1.3-1.44,1.07s.21-2,0-2.62a1.46,1.46,0,0,0-.67-.77c-1.09-.54-2,.66-3,.85-.4-1,.57-1.51.55-2.55a1.34,1.34,0,0,0-1.37-1.33c-.79,0-1.51.57-2.25.37-.17-.45.23-.77.48-1.07.59-.69,1.24-2,.11-2.69a5.54,5.54,0,0,0-2-.15c-1.6-.08.38-1.23.74-1.59a1.48,1.48,0,0,0-.07-2.29,4.39,4.39,0,0,0-1.11-.37c-.44-.07-1-.14-1.07-.4-.08-.41.65-.61,1.07-.78.82-.31,1.88-1.19,1.18-2.29a2.76,2.76,0,0,0-1.07-.77c-.37-.17-1-.46-1-.78s.65-.35,1.07-.4c1-.14,2.24-.61,1.85-1.88a2.5,2.5,0,0,0-.48-.78c-.36-.36-2-1.45-.45-1.47.6,0,1.09.17,1.55.11a1.37,1.37,0,0,0,1.19-1.55c-.1-.8-.91-1.24-1.08-2.14.37-.31.86-.09,1.26.07a1.93,1.93,0,0,0,2.11-.07c.6-.49.3-1.55,0-2.26-.12-.32-.26-.88,0-1s.77.24,1,.4a2,2,0,0,0,1.88.59,1.47,1.47,0,0,0,.86-.81c.15-.54-.21-2.11.14-2.36s1.43,1.27,1.89,1.48c1.26.56,2-.58,2.1-1.66.07-.54.15-1,.41-1.08.49-.08.91,1.34,1.14,1.63a1.49,1.49,0,0,0,2.33,0c.25-.33.58-1.8,1.11-1.74.28,0,.36.57.44,1,.18,1,.71,2.17,2,1.7a2.19,2.19,0,0,0,.88-.7c.32-.38.75-1.16,1.11-.92s.08,1.46.15,1.92A1.37,1.37,0,0,0,65,58.62,2.62,2.62,0,0,0,66,58c.28-.23.74-.65,1-.52s.1.8,0,1.11a2.34,2.34,0,0,0-.15,1.62,1.29,1.29,0,0,0,1.08.81c.82.1,1.65-.66,2.51-.59.27.79-.75,1.39-.85,2.22a1.41,1.41,0,0,0,1.55,1.59c.56,0,1.73-.47,1.92,0s-.67.87-1,1.18a1.56,1.56,0,0,0-.08,2.25,3,3,0,0,0,1.3.41c.33,0,1.21,0,1.29.37s-.77.74-1,.88c-.69.4-1.53,1.23-.84,2.22a2.09,2.09,0,0,0,1.21.74c.45.16,1.17.42,1.11.74s-1.31.48-1.88.77a1.32,1.32,0,0,0-.81,1c-.22,1.43,1.19,1.58,1.88,2.36,0,0,0,.35.07.18s.09.19,0,.26c-1.13.33-2.3,0-2.88.74-1,1.28,1,2.41,1.1,3.14C72.55,81.56,72.64,81.91,72.43,81.8Z"/><path class="cls-2" d="M71.12,72.47a14.31,14.31,0,1,1-14.31-14.3A14.31,14.31,0,0,1,71.12,72.47Z"/><path class="cls-3" d="M34.91,70s.38-6.44,3.08-9.42H29s6.56-18.93,27.76-18.93A29.56,29.56,0,0,1,82,55.85H93.3S83.64,32,56.71,31.79c0,0-34.29-1.95-39.89,38.23Z"/><path class="cls-4" d="M75.48,60.25A18.77,18.77,0,0,1,78.58,70H98.45l6.85,3.66,7.91-4.13V67.66L107,67.59s-4.26-2-.14-5.17l6.37.07V60.25L105,56.13,98.1,60.32Z"/><path class="cls-5" d="M79.68,74.29s-.37,6.43-3.08,9.42h9.05s-6.57,18.92-27.77,18.92a29.54,29.54,0,0,1-25.3-14.17H21.3S31,112.33,57.88,112.51c0,0,34.3,2,39.89-38.22Z"/><path class="cls-4" d="M38.22,84.09a18.76,18.76,0,0,1-3.1-9.76H15.26L8.4,70.67.5,74.79v1.89l6.23.07s4.26,2,.14,5.18L.5,81.86v2.23l8.18,4.13L15.61,84Z"/><path class="cls-6" d="M69.18,72.5A12.51,12.51,0,1,1,56.67,60,12.51,12.51,0,0,1,69.18,72.5Z"/><line class="cls-7" x1="68.62" y1="55" x2="56.93" y2="72.78"/><text class="cls-8" transform="matrix(0.58, -0.81, 0.81, 0.58, 18.24, 53.4)">M</text><text class="cls-8" transform="matrix(0.79, -0.61, 0.61, 0.79, 27.03, 41.59)">E</text><text class="cls-8" transform="matrix(0.92, -0.4, 0.4, 0.92, 34.78, 35.5)">K</text><text class="cls-8" transform="matrix(0.99, -0.12, 0.12, 0.99, 44.38, 31.03)">V</text><text class="cls-8" transform="matrix(0.99, 0.12, -0.12, 0.99, 54.51, 29.34)">A</text><text class="cls-8" transform="matrix(0.92, 0.4, -0.4, 0.92, 67.64, 31.04)">H</text><text class="cls-8" transform="matrix(0.76, 0.65, -0.65, 0.76, 77.76, 35.18)">A</text><text class="cls-8" transform="matrix(0.56, 0.83, -0.83, 0.56, 87.71, 43.84)">N</text><line class="cls-7" x1="58.07" y1="73.26" x2="46.38" y2="91.04"/><text class="cls-9" transform="translate(20.61 119.81)">Always Cares Ur Vahan</text></g></g></svg>